<svg id="Demonic_Glyph_1" data-name="Demonic Glyph 1" xmlns="http://www.w3.org/2000/svg" width="400" height="400" viewBox="0 0 400 400"><defs><style>.cls-1{fill:#b05ca4;}</style></defs><path id="Rune_5" data-name="Rune 5" class="cls-1" d="M118.54,269.62c-4.6,18.51,4.86,39.62.89,56-18.64-9.13,4.23-58-16-69.32-10.1,9.41,10.1,77.61-6.55,70.55-2-103.78-13.5-120.64-11.91-3.54-12.75,9.93-3.66-38-6.23-45.14-3.88-77.68-36.83-175.87,42.86-228.75C188.18,4,295,43,322.82,117.64c29.29,68.79-20.89,162.73-94,177.34,18.34,12.24,52.47,26.16,51.9,55.31-2.2,7.69-.73,23.64-12.44,18.82,1.61-35.87-39.65-61-72.61-54.82-30.41-.33-53.28,17.9-64,46-2.3,4.05-4.47,9.93-10.34,7.75.21-32.77,28.95-61.87,58.48-74.27C156.54,287.83,139.66,281.28,118.54,269.62ZM105.47,89.39c85-65.51,113,7.13,99.59,86.19C204.9,211,193.52,256.2,209,287.19,283,290,341.1,196.52,315.85,129.77,289.25,55.63,153.94,19.9,105.47,89.39ZM81.7,192.82c.25,33.34,28.2,60.73,55.52,75.59,20.94,5.21,67.27,39.92,55.93-5.38-7-47.49,27.17-174.46-34.68-187C105,85.19,84.92,145,81.7,192.82Z"/></svg>