<svg id="Demonic_Glyph_1" data-name="Demonic Glyph 1" xmlns="http://www.w3.org/2000/svg" width="400" height="400" viewBox="0 0 400 400"><defs><style>.cls-1{fill:#b05ca4;}</style></defs><path id="Rune_1" data-name="Rune 1" class="cls-1" d="M47.6,367.4c4.95-12.93-4.55-80.76,8.4-77.54,9.59,12.79,9.13,28.67,14.06,43.49,43.25-39.5,82.91-87.65,119-135.14,5.36-38.38,5.68-83.27,4.45-122.46-21.61-6.49-58.57,8.28-74.59-2.58,14.3-15.28,65,5.37,76.18-12-7.32-22.66-58.88,4.86-70.93-10.62,11.7-14.68,60.37,4.61,70.42-9.78-14.31-14.48-60.38,5.79-70.78-10.73,45.6-5.76,101.81-.14,150.33-2.64-3.74,15.14-52.24,4.43-67.07,9.9-15.9,18.09,53.16,6.48,62.73,10.84-1.33,18.41-59.74-4.7-66.82,11.69,7.35,16.37,48.4,2.61,65,6.25,7.83,22.3-74.94-10-65,24.11,1.91,35-9.52,73.06.53,106.58,41.05,46.9,83.88,92.25,125.68,138.47,11.71-5.52,5.55-68.57,18.45-47.88-5,24.57,24.48,112.39-21.13,57.64-35.07-42-73-81.48-109.55-122.23-16.38-6.16-35.55,25.49-46.62,36.67C133,294.11,95.79,329.51,61.86,367.56,56.41,373.87,54.63,374.87,47.6,367.4Z"/></svg>