<svg id="Demonic_Glyph_1" data-name="Demonic Glyph 1" xmlns="http://www.w3.org/2000/svg" width="400" height="400" viewBox="0 0 400 400"><defs><style>.cls-1{fill:#b05ca4;}</style></defs><path id="Rune_2" data-name="Rune 2" class="cls-1" d="M333.83,255.43c10.95,4.62,29.6-6.25,35.94,1.68,1,3.6-1.16,7.47-4.4,8.08-17.43,0-32.94,3.2-49.51,8.76a226.42,226.42,0,0,0-2.09,64.22c.43,10.12,5.49,7,14,8.68,6.13,13.25-39.8,17.53-46.54,11.22.1-12.53,21.77-1,23-13.23,1.19-23.5,1.24-47.09,1.76-70.62,0-6.51-1.37-7.67-8.19-8.24-35.32-1.85-70.73-.14-106-2.66-6.33.16-9.15,2.93-9.2,9.08.88,23.38-2.88,47.45,2.66,70.28l12.22,3.64c.4,2.07.86,4.54,1.33,7-8.76,6.56-19.64-2.5-28.52,5.35-5.1,3.43-14.92.15-11.71-6.87,7.82-19.59-1-39.78,1.51-59.93-.41-8.2,1.83-26.14-10.82-24.35-15.13,1.1-31.91,1.73-33.92,20.36-8.91,31.43-48.33,26.32-70.36,12C5.8,271.7,50.59,196.35,98.31,214.68c22.14,2.95,21,26.58,24.5,43.89,18.73,3.68,41.09-3.36,49.57-7.3-2.33-13.16,8.11-68.53-6.56-69.68-34.76-10.8-49.45-61.7-20.82-85.93,5.95-4.36,5.83-5.2,3.23-11.36-19.79-36.51,45.36-63.2,61-30.37C214.1,68,193,84.5,204.43,92.45c27.81,26.68,9.66,73.78-22.21,89,2.53,13.26-8.9,74.15,7.39,72,35.59,4,71.41,1.46,107.15,3,9,.13,10.71-1.23,10.7-10.5-.3-15.56-1.34-31.13-1.81-46.7-.45-8.2-1-8.88-8.81-10.37-7.09,0-9-7.9-1-10.29,9.69-5,19.91-2.33,29.84-5.15,4.56-1,6.2.39,6,5.16C330.09,204.18,332.84,229.75,333.83,255.43ZM155.85,140c-10.33,32.89,36.26,29.6,44.14,5.2,11.68-22.45,1.8-31.1-15.23-39.51C167.27,101.7,156.06,124.82,155.85,140ZM108.63,255.57c.1-13.11-15.77-37.16-30.9-25.31-11.87,11.47-21.86,29.8-14.22,45.92C78.84,305.27,109.15,282.6,108.63,255.57Zm85.65-192.1c.53-12.72-12-12.53-19.29-5.47-12.25,7.92-2.89,33.09,11.37,22.19C191.54,75.66,193,69.44,194.28,63.47Z"/></svg>