<svg id="Demonic_Glyph_1" data-name="Demonic Glyph 1" xmlns="http://www.w3.org/2000/svg" width="400" height="400" viewBox="0 0 400 400"><defs><style>.cls-1{fill:#b05ca4;}</style></defs><path id="Rune_3" data-name="Rune 3" class="cls-1" d="M253,200.23c2.47,22.66,20.41,45.43,12.13,69.9-8.48,35.56-17.55,76.24-48.16,99.32-7,3.09-10.91-7.62-16.13-10.77-41.7-26.71-52.1-81.29-29.4-124.15,1.32-7.24,25.81-32,18.43-33.47-24.09-1.82-50.33,1.25-69.22,17.67-3.58,2-4,9.74-9.31,9.67-20-2.58,21.09-38.56,29.32-40.66,27.89-18.43,40.82-7.12,68.76-9.05,1.28-7.63,0-26.78-3.26-47.5-10-5.72-24-1-35.41-2.31-64.11-2.45-16.8,11.39-50.73,27.5C76.65,174.55,38.71,111.62,86.44,93c6.14-4.53,12.72-1.88,18.92.5,20.73,2.18,18.84,26.83,33.58,28.12,18.1-.58,36.35.73,54.37-.57,9.33-4.25,1.91-18.64,2.73-26.67,1.67-12.76-4.41-28.83,3.81-39.5,3.78-3.41,7.24-7.2,9.32-12.09C211.1,37.24,219.79,39,218,46.7q-.3,33.09-.46,66.17c0,6.09,1.22,7.77,7.12,7.92,10.49-1.7,28.29,4.72,35.27-4.18.76-5.82,3-14.18-4-16.89-13.68-7-27.21-23-18.89-38.71,6.82-13.28,17-29.43,33.74-29.19,37.77-11,69.14,30.43,40.92,60.81-6.52,6.47-5.42,14.24-4.13,22,4.26,9.46,24.73-3.89,28.16,6.34-4,9.3-27.94,3.2-37.44,5.55-22.65,1.9-46,0-69.11,1.63-12.17.37-13.79,2.28-12.41,13.94,3.53,9.24-2.92,39.53,12,36.6,39.17-16.31,79.1,12.14,104.71,40.1,2.39,2.18,3.28,9.63-.15,10.12-14.28-4.28-22.93-19.68-37.24-24.45C282.57,200.72,266.65,195.21,253,200.23ZM213.63,347.91c36.29-28.45,56.68-89.63,32.17-131.72-8.06-8.82-22.35-29.51-35-18.05C166.61,232.66,159.29,319.32,213.63,347.91ZM288.22,94.67c33.68,0,33.84-53.17,2.35-55.07-10.51,1.14-22.92-3.21-31.38,4.84-16.39,11.58-24.65,39.61.26,45.38,2.84-7.64-5.45-25.32,6.78-24.75,3.36,9.74-4.37,32.54,11.62,30.4,4.17-4.64-1.8-16,7-15.63C290.39,82.57,284.34,90.51,288.22,94.67Zm-185.87,54.8C114.72,150,119.43,134,121.28,124c-1.82-17.89-21.12-27.07-36.58-18.79C62.43,118.78,80.1,148.76,102.35,149.47Zm196.46-45.93c-9.8-.11-13.66,3.92-11.55,11.41,1,5.46,12.45,6.12,12.65-.35C300,111.09,300.72,107.44,298.81,103.54ZM268,110.69c-1.78,8.42,10.36,13.6,12.26,3.89C284.93,105,267.52,98.91,268,110.69Z"/></svg>