<svg id="Demonic_Glyph_1" data-name="Demonic Glyph 1" xmlns="http://www.w3.org/2000/svg" width="400" height="400" viewBox="0 0 400 400"><defs><style>.cls-1{fill:#b05ca4;}</style></defs><path id="Rune_6" data-name="Rune 6" class="cls-1" d="M190.36,31c13.06-6,7.76,16.52,8.58,23.49,1.68,19.12,40.51.41,35.95,20.31C223,77.53,194.51,66,198.12,87.27c2,8.31-2,21.94,6.8,26.49,20.65,8.92,31.66,30.61,30.45,52.43,94.78,22.94,97.31,179.21-1.11,198.18C103.52,403,37,232.73,151.35,165.63c-3.32-25.08,10.6-46.28,34.94-52.86,9.87-3.91,3.44-17.85,5.09-26.17-.56-15.85-20.38-9.34-30.22-13.52-5.29-12.44,19.53-5.51,26.25-7.28C193.86,57.06,187.28,41.71,190.36,31ZM175.47,178.16C45.38,186,123.43,367.52,221.88,360c49.75-3.53,93.78-60.53,74.47-108.41C277.37,206,223,179.64,175.47,178.16Zm-9.8-18c20.34.74,38.9.52,58.81,4.5,4.46-.22,3.86-5.05,3-8.16C224.13,116.53,160.06,117.51,165.67,160.12Z"/></svg>