<svg id="Demonic_Glyph_1" data-name="Demonic Glyph 1" xmlns="http://www.w3.org/2000/svg" width="400" height="400" viewBox="0 0 400 400"><defs><style>.cls-1{fill:#b05ca4;}</style></defs><path id="Rune_7" data-name="Rune 7" class="cls-1" d="M233.94,166.09a256.89,256.89,0,0,0,69.3,6.06c12.53-.71,12.75,12.83,6.43,20.69-27.3,0-56.71-10.06-83.33-5.43-2.39,40.89-6.42,82-3.91,123.18-2.64,16,11.74,52.45-5.54,59.41-4.15-.12-6.84-2.59-6.66-6.76,5.54-49.82-.6-100.05.81-150.13-18.82,16-24.14,42.91-41,61.05C159.64,281.93,84.3,390,86.29,357,122.65,298.51,168.19,242.4,206,185.22,134,167,45,227,128.09,121.23,157,88.63,184.15,40.59,228.77,30.28,258.62,27,273.83,52.86,275,79.54,276.36,113.34,249.49,138.51,233.94,166.09ZM111.61,169.9c32.32-4.56,66.64.28,98.21-5.54.29-35.43,3.59-72.61-.35-106.72C170.79,85.29,128.31,126,111.61,169.9Zm108-4.75c33.83-16,80.05-131,13-122.79C209.91,63.39,223.56,132.75,219.57,165.15Z"/></svg>