<svg id="Demonic_Glyph_1" data-name="Demonic Glyph 1" xmlns="http://www.w3.org/2000/svg" width="400" height="400" viewBox="0 0 400 400"><defs><style>.cls-1{fill:#b05ca4;}</style></defs><g id="Rune_8" data-name="Rune 8"><path class="cls-1" d="M148.55,91.69c-3.22,18.14-42,44.19-45.66,64,1.07,45.14-.15,90.9,7.65,135.5,1.38,27.29,15.18,55,43.09,63.24,30.15,5.73,62.27,5.36,88.32-12.64,37.58-32.18,11.83-92.34,39.93-130.46,24-33.62,83.05-12.26,86.1,27.29,1,6.2,5.38,14.41-3.14,17.38-8.43,2.19,4.41-31.38-23-45.63-18.43-11.36-44.92-6.76-55.51,12.84-22.17,41.4,5.36,100.54-35,133.76-35.82,21.55-90.25,22.57-125.79.2-28.68-29.28-29.29-74.6-32.6-113.19,0-29.71-6.12-59.21-3.14-88.88C86.86,138.18,61.51,130.4,51,117.35,15.83,86.58,31.33,107.66,50.49,77,57.26,68.37,81,28.48,92.3,38.82A320.6,320.6,0,0,1,148.55,91.69ZM94.07,53c-11,18.83-22.92,35.74-31.94,55.42-3,5.36,1.69,9.31,5.1,13,5.77,4.49,26.61,25.46,32.08,16.72,6.17-9.64,41.77-35.76,34.33-45.16A148.11,148.11,0,0,0,94.07,53Z"/><path class="cls-1" d="M143.51,250.88c-12.39-4.94.28-47.92.07-60.35,4.27-9,11.7,1.07,12.93,6.84,7.42,4.77,16.65-1,24.65-1.6,29.68-8.66,46.3-44.13,50-72.73C230.85,106.41,222.49,91,215,76.43,211.1,67.18,187,42,179,55.81c-19.57,28.46-13.08-5-11.69-18.58,0-4.32,4.1-6,7.67-6.88,5.46-.27,9.9-4.22,15.42-3.83C202,28.91,184.63,40.24,191.82,45c34,13.48,40.67,47.11,49.77,77.86-4.84,47-34.68,83.12-78.26,100C151.62,227.76,153.31,245,143.51,250.88Z"/></g></svg>