<svg id="Demonic_Glyph_1" data-name="Demonic Glyph 1" xmlns="http://www.w3.org/2000/svg" width="400" height="400" viewBox="0 0 400 400"><defs><style>.cls-1{fill:#b05ca4;}</style></defs><g id="Rune_9" data-name="Rune 9"><path class="cls-1" d="M194.32,30c.59,17.93-27.59,44.86-13.88,59.57,53.65,16.1,117.8-2.88,168.28,16.92-67,10.43-97.44-3.29-37.82,62.49,6.06,17.08,82.94,83.67,48.56,81.79-49.25-63.2-39.86-23.94-68.86,22C265.16,304.52,241,343.25,212.84,370c-9.15-16.17,21.57-36.89,25.15-55.13,23.36-17.13-199.77,22.69-158.29-8.58,20.74-9.87,64.4-1.52,73.91-23C112,254,85.9,207.51,46.78,174.61.27,115,74.79,184.42,92.35,194.4c20.05,4.07,15.94-42.35,28-56.12C140.56,107.79,166.06,44,194.32,30Zm19.39,263.65c120.5-5,106.91-192.79-11.92-187.29C82.17,107.74,96.27,299.07,213.71,293.65Z"/><path class="cls-1" d="M206,228.12c11.27-38-32.49-11.12-47.14-25.91,9-15.17,51.47,9,47.61-18.12,2.31-12.64-13.54-3.5-14.11-15.19,14.07-.1,12.29-7.79,15.17-18.44,11.66-5.91,2.55,22.95,21.49,15,27.72,8.9-30.9,3.93-10.48,30.23,13.07-1,66.07-5.5,28.06,11.48-22.51-4.56-36.79-1.36-29.57,25.1,52.18-30,36.69,54.32-1.83,23.63-4.12-4-4.12-4-10.27-.16,7.65,11.21,22.64,17.06,35.2,10.68,15.32-.56-2.29,12.63-9.66,10.3-12.17,2-22.05-10.28-33.44-5.78-7.09,3-22.47,4.29-24.67-5,8.05-4.17,20.62,5.08,29.12-7.1C154.21,267.86,163.88,215.17,206,228.12Zm-18.66,24.2c8.85.58,22.54-8.18,12.87-15.23C186.93,226.74,165.68,247.09,187.37,252.32Zm55.2-9.71c.24-14.13-24.65-6.55-22,4.5C224.31,260.17,241.71,254.06,242.57,242.61Z"/></g></svg>