<svg id="Demonic_Glyph_1" data-name="Demonic Glyph 1" xmlns="http://www.w3.org/2000/svg" width="400" height="400" viewBox="0 0 400 400"><defs><style>.cls-1{fill:#b05ca4;}</style></defs><path id="Rune_4" data-name="Rune 4" class="cls-1" d="M243.79,229.71c-7.73,4.25-33.12,11-19.33,20.66C263.67,274,218.38,365.58,199,355.82c-25.13-30.86-54.35-71-13.79-103.53,10.74-7.61-11.21-12.48-17.77-14.5-11.39-.63-25.77-12.58-34.92-1.49-15,19.37-36.27,35.74-45.15,58.89-3.25,14.68,18.06,22.26,25.9,32.46,5.32,3,6.41,13.3-1.72,11.46-8.47-6-15.41-14.89-23.67-21.45-13.76-11.15-35,25.54-45.11,33.71-12.6,1.77-16.93-2.76-8.19-12.88C64.72,296.81,80.69,307,37.1,267.84c1.22-22.65,39,24,49.12,8.31,8.52-17.46,55.05-48.07,21.4-58.66C60.4,186.87,74.54,112.81,98.17,70.72c6.45-7.55,9.52-21.31,19.44-24.34,8.26.09,2.53,9.19.16,12.7-23.4,28.82-32.1,69.14-18.2,104.17,7.05,14.7,31.34,59.05,48.36,34.08C163,179.29,177.71,161,194,144c8-10.21,11.21.67,15.87,6.8,5.71,12.77,35.39-10.61,31.15-19.14-4.37-13.08.18-27.44,13.11-33.24,13.82-10.25,29.85,4.29,41.72-4.94,4.75-5.36,15.41-9.51,11.66-18.21-3.88-9.75-6.81-19.81-16.7-25-2.25-2.58-1.2-6.84,2.67-6.82,12.39.18,16.15,15.32,20.66,24.51,5,9,13.29-4.3,18.31-7.46,13.41-14.38,16.86,4,3.57,10.9-22.45,11.12-8,32.66-12.84,51.79-30.36,150.83-113.23,26.73,31.41,197,4.43,4.71,24.26,24,10.88,25.46a166.69,166.69,0,0,1-32.64-27.19C300.87,291.17,278.33,253.69,243.79,229.71ZM315.8,109c1.33-23.7-16.17-12-15.87,2.95.88,6.72-2.08,11.34-5.95,16.36-12.63,19.64-28.18,14-45.58,20.84-6,6.7-23.76,12.33-16.74,23.23C240.27,183,250.39,211,266.3,206.89,300.22,185.83,311.75,146.7,315.8,109ZM153.51,213.35c6.5,10.44,46.06,27,57.5,22.63,7.31-8.42,44.63-14.9,37.87-26.07-9.33-6.49-26-40.78-37.22-28.64-2.79,2.85-6.77,5.81-10.76,5.88-3.31-.22-7.28-.3-9-4.92,4-8.44,21.33-16.8,8.32-26.6C183,171.7,167.42,193.71,153.51,213.35Zm70.9,76.9c-.84-28.91-21.91-48.37-41.73-20C164,290.67,179.5,317,195.32,334.37,213.72,358.27,220.73,300.91,224.41,290.25ZM275.66,109c-3.67-3.7-7-1.79-9.75-1.33C245.26,117.1,251.76,139.31,275.66,109ZM270,131.74c6.83.5,7.88-3.93,12.26-7.57C284.7,115.33,272.42,127.06,270,131.74Z"/></svg>